<svg width="17" height="16" viewBox="0 0 17 16" fill="none" xmlns="http://www.w3.org/2000/svg">
<g clip-path="url(#clip0_285_565)">
<path d="M16.9591 15.3444L13.9593 8.7572C13.8805 8.58422 13.6997 8.47204 13.4998 8.47204H11.5946C12.3657 7.20422 12.9998 5.80102 12.9998 4.61377C12.9998 -1.50025 4.0002 -1.57483 4.0002 4.61377C4.0002 5.80102 4.6343 7.20422 5.40536 8.47204H3.5002C3.30021 8.47204 3.11941 8.58422 3.04068 8.7572L0.0408537 15.3444C-0.10026 15.6542 0.141501 16.0002 0.50038 16.0002H16.4996C16.8577 16.0002 17.1005 15.6549 16.9591 15.3444ZM13.17 9.41308L14.6502 12.6633C14.6039 12.686 9.7861 15.0406 9.7516 15.0592H8.70505C8.67859 15.0314 8.90349 15.2441 5.64492 12.1776L7.45488 11.3058C7.82387 11.749 8.08237 12.0306 8.1227 12.0743C8.32192 12.2902 8.67821 12.2898 8.87716 12.0743C8.96082 11.9838 9.98 10.8723 10.984 9.41308H13.17ZM8.5 0.943722C10.1856 0.943722 11.9998 2.09228 11.9998 4.61377C11.9998 6.73388 9.47469 9.88903 8.5 11.0277C7.52531 9.88891 5.00018 6.73388 5.00018 4.61377C5.00018 2.07861 6.75787 0.943722 8.5 0.943722ZM3.8299 9.41308C6.25191 9.41308 5.97669 9.41345 6.01547 9.41235C6.29705 9.82165 6.57979 10.2036 6.84283 10.5435L2.32383 12.7202L3.8299 9.41308ZM1.70711 14.0745L4.70965 12.6282L7.29301 15.0592H1.2586L1.70711 14.0745ZM11.9186 15.0592L15.0453 13.5306L15.7414 15.0592H11.9186Z" fill="#DC571F"/>
<path d="M9.99982 4.23706C9.99982 3.45874 9.32694 2.82544 8.49998 2.82544C7.67288 2.82544 7 3.45874 7 4.23706C7 5.01538 7.67288 5.64856 8.49998 5.64856C9.32694 5.64856 9.99982 5.01538 9.99982 4.23706ZM7.99998 4.23706C7.99998 3.97754 8.22424 3.76648 8.49998 3.76648C8.77559 3.76648 8.99997 3.97754 8.99997 4.23706C8.99997 4.49646 8.77559 4.70752 8.49998 4.70752C8.22424 4.70752 7.99998 4.49646 7.99998 4.23706Z" fill="#DC571F"/>
</g>
<defs>
<clipPath id="clip0_285_565">
<rect width="17" height="16" fill="white"/>
</clipPath>
</defs>
</svg>
