<svg width="121" height="112" viewBox="0 0 121 112" fill="none" xmlns="http://www.w3.org/2000/svg">
<path d="M48.1747 88.502C46.2973 88.502 44.77 90.0304 44.77 91.9096C44.77 93.4854 45.8504 94.8023 47.3047 95.1904C47.3878 95.206 47.4659 95.2324 47.5478 95.2532C47.7513 95.2914 47.96 95.3166 48.1747 95.3166C49.0522 95.3166 49.8455 94.9739 50.4498 94.426C50.444 94.321 50.4183 94.222 50.4183 94.1161C50.4183 92.9216 50.7832 91.812 51.4067 90.8911C50.9711 89.5112 49.6956 88.502 48.1747 88.502Z" fill="#8E4D39"/>
<path d="M62.789 67.9111C64.0601 67.9111 65.2546 68.2425 66.295 68.8199C66.5254 68.3643 66.8093 67.9421 67.141 67.5612C67.2145 67.2397 67.2614 66.908 67.2614 66.5645C67.2614 64.096 65.2552 62.0886 62.789 62.0886C60.9709 62.0886 59.4095 63.1838 58.7114 64.7463C59.1331 65.6661 59.3748 66.6849 59.3748 67.7612C59.3748 68.1204 59.34 68.4703 59.2891 68.8158C60.3278 68.2411 61.5205 67.9111 62.789 67.9111Z" fill="#8E4D39"/>
<path d="M71.7678 66.5225C69.7526 66.5225 68.0225 67.7178 67.2109 69.4291C68.9301 70.7584 70.0435 72.8341 70.0435 75.1708C70.0435 75.552 70.0053 75.9233 69.9485 76.2883C70.5146 76.5085 71.1247 76.6411 71.7678 76.6411C74.5552 76.6411 76.8234 74.3712 76.8234 71.5818C76.8234 68.7924 74.5552 66.5225 71.7678 66.5225Z" fill="#8E4D39"/>
<path d="M46.4282 96.1824C44.4631 96.1824 42.8652 97.7817 42.8652 99.7486C42.8652 101.715 44.4631 103.315 46.4282 103.315C47.6308 103.315 48.6909 102.713 49.3369 101.797C49.466 101.353 49.6451 100.931 49.8929 100.553C49.9531 100.294 49.9924 100.026 49.9924 99.7486C49.9924 97.7817 48.3934 96.1824 46.4282 96.1824Z" fill="#8E4D39"/>
<path d="M62.7891 89.481C61.9209 89.481 61.1638 89.9437 60.7349 90.6323C61.4784 91.6027 61.9371 92.8012 61.9371 94.116C61.9371 94.1351 61.9319 94.1527 61.9316 94.1721C62.1987 94.274 62.4861 94.3365 62.7891 94.3365C64.1271 94.3365 65.215 93.2474 65.215 91.9095C65.215 90.57 64.1271 89.481 62.7891 89.481Z" fill="#8E4D39"/>
<path d="M46.0496 73.3416C46.0939 73.3416 46.1364 73.3474 46.1804 73.348C46.3463 73.0617 46.4774 72.7567 46.5772 72.4351C45.5113 71.171 44.8653 69.5413 44.8653 67.7613C44.8653 67.6586 44.8766 67.5593 44.8806 67.4575C44.1551 66.9487 43.2761 66.6448 42.325 66.6448C39.8586 66.6448 37.8523 68.6528 37.8523 71.1215C37.8523 73.1321 39.1936 74.8179 41.0216 75.38C42.3272 74.1207 44.0978 73.3416 46.0496 73.3416Z" fill="#8E4D39"/>
<path d="M61.041 100.703C59.7925 100.703 58.7434 101.526 58.3758 102.655C58.3894 102.801 58.4195 102.941 58.4195 103.09C58.4195 103.447 58.3706 103.792 58.2942 104.126C58.4924 105.031 59.1234 105.774 59.9609 106.124C60.1766 106.161 60.3832 106.22 60.5832 106.295C60.7328 106.32 60.8845 106.341 61.041 106.341C62.5946 106.341 63.8579 105.077 63.8579 103.522C63.8579 101.968 62.5946 100.703 61.041 100.703Z" fill="#8E4D39"/>
<path d="M52.1202 61.582C48.7155 61.582 45.946 64.3538 45.946 67.7611C45.946 71.1687 48.7155 73.9399 52.1202 73.9399C53.606 73.9399 54.9707 73.4117 56.0374 72.533C56.4539 71.4691 57.1144 70.5294 57.9499 69.7777C58.1693 69.1448 58.2943 68.4678 58.2943 67.7611C58.2943 64.3538 55.5249 61.582 52.1202 61.582Z" fill="#8E4D39"/>
<path d="M49.097 85.9691C48.9216 85.3445 48.8209 84.6887 48.8209 84.0083C48.8209 81.6333 49.9713 79.5275 51.7382 78.202C50.8005 75.9833 48.6041 74.4233 46.0494 74.4233C42.6444 74.4233 39.8752 77.1951 39.8752 80.6021C39.8752 84.0097 42.6444 86.7812 46.0494 86.7812C47.1579 86.7812 48.1966 86.4834 49.097 85.9691Z" fill="#8E4D39"/>
<path d="M69.6655 77.468C68.7385 80.2389 66.187 82.2631 63.1476 82.413C63.263 82.9273 63.3296 83.4592 63.3296 84.008C63.3296 85.1723 63.0474 86.2692 62.5586 87.2457C63.6885 88.4835 65.3086 89.2661 67.112 89.2661C70.5167 89.2661 73.2858 86.4944 73.2858 83.0873C73.2858 80.592 71.798 78.4425 69.6655 77.468Z" fill="#8E4D39"/>
<path d="M56.6147 75.1705C56.6147 75.7311 56.6964 76.2718 56.837 76.7887C59.5659 77.0752 61.8439 78.8846 62.8178 81.3478C66.2092 81.3325 68.963 78.5683 68.963 75.1705C68.963 71.7641 66.1936 68.9929 62.7892 68.9929C59.3845 68.9929 56.6147 71.7641 56.6147 75.1705Z" fill="#8E4D39"/>
<path d="M56.0745 77.8291C52.671 77.8291 49.9019 80.6011 49.9019 84.0082C49.9019 86.2789 51.1354 88.262 52.963 89.3363C53.8819 88.7144 54.9881 88.3515 56.1782 88.3515C57.3237 88.3515 58.3867 88.6976 59.2845 89.277C61.0586 88.19 62.2487 86.2384 62.2487 84.0082C62.2487 80.6011 59.4793 77.8291 56.0745 77.8291Z" fill="#8E4D39"/>
<path d="M51.499 94.1156C51.499 96.1783 52.8489 97.9139 54.704 98.5356C54.8904 98.5738 55.0646 98.6421 55.2423 98.702C55.5448 98.7637 55.8574 98.7964 56.1777 98.7964C58.757 98.7964 60.8562 96.6967 60.8562 94.1156C60.8562 91.534 58.757 89.4329 56.1777 89.4329C53.5985 89.4329 51.499 91.534 51.499 94.1156Z" fill="#8E4D39"/>
<path d="M53.7763 99.5234C51.8109 99.5234 50.2122 101.124 50.2122 103.09C50.2122 105.057 51.8109 106.656 53.7763 106.656C55.7412 106.656 57.3391 105.057 57.3391 103.09C57.3391 101.124 55.7412 99.5234 53.7763 99.5234Z" fill="#8E4D39"/>
<path d="M59.3632 107.145C58.0249 107.145 56.937 108.234 56.937 109.572C56.937 110.912 58.0249 112 59.3632 112C60.7015 112 61.7897 110.912 61.7897 109.572C61.7897 108.234 60.7015 107.145 59.3632 107.145Z" fill="#8E4D39"/>
<path d="M20.1648 47.3475C20.4556 47.8163 20.7804 48.269 21.1005 48.7242C20.8424 48.7251 20.5836 48.7077 20.3259 48.7176C18.8473 48.7616 17.3998 49.0261 15.9397 49.1071C14.4669 49.1601 13.009 49.3167 11.4283 49.2539C11.3797 49.2539 11.3401 49.2148 11.3401 49.1656C11.3398 49.1355 11.3584 49.1068 11.3813 49.0906C12.7144 48.2528 14.1991 47.7124 15.7256 47.425C17.1869 47.0989 18.6939 47.2412 20.1648 47.3475ZM20.045 40.1442C21.0103 41.0411 21.8461 41.7785 22.9627 42.502C23.8667 43.089 24.5847 43.7025 24.2148 44.6709C23.4366 46.7165 21.2945 43.8498 19.8402 42.063C19.4784 41.0544 19.1878 40.0041 18.9365 38.9306C19.2579 39.3584 19.635 39.7639 20.045 40.1442ZM29.2173 49.6781C29.2595 49.6987 29.2772 49.7496 29.2563 49.7916C29.2372 49.8295 29.188 49.8457 29.1484 49.8333C27.7231 49.3716 26.2383 49.1019 24.76 48.9375C24.3326 48.8834 23.9038 48.8576 23.4753 48.8212C23.1869 48.4362 22.9207 48.038 22.6557 47.6389C24.9375 48.0085 27.1605 48.6634 29.2173 49.6781ZM25.2456 39.6559C25.2564 39.651 25.2734 39.6469 25.2847 39.6452C26.088 39.5818 26.8144 39.8327 27.4213 40.2408C28.0605 40.6289 28.3865 41.3421 28.7373 41.9576C29.4456 43.2079 29.8201 44.6 29.801 45.9791C29.7999 46.026 29.7614 46.0636 29.7142 46.063C29.6771 46.0622 29.6439 46.0318 29.6326 45.9991C29.4219 45.3759 29.1171 44.7873 28.7664 44.2495C28.442 43.6994 28.0631 43.1914 27.6334 42.7446C27.2102 42.2847 26.6618 41.9863 26.2954 41.5076C25.9273 41.0121 25.5349 40.5383 25.2019 39.7934C25.1762 39.743 25.1959 39.682 25.2456 39.6559ZM25.6204 58.6061C25.063 59.3499 24.4909 60.166 23.6324 60.6164C22.8072 61.0948 21.8451 61.361 20.8526 61.2936C20.8008 61.2898 20.7616 61.2447 20.7649 61.1926C20.7661 61.1732 20.7772 61.1503 20.7886 61.1362C21.4114 60.3443 22.0527 59.8257 22.6483 59.2353C23.2422 58.6686 23.9951 58.2866 24.6111 57.7008C25.4725 56.8991 26.253 55.9649 26.9203 54.9397C27.0782 55.0662 27.2367 55.1915 27.3968 55.3137C26.9789 56.4794 26.3901 57.5946 25.6204 58.6061ZM38.1785 51.959C40.3563 52.6406 42.2853 53.8883 42.7316 56.1651C42.8989 57.0172 43.0581 57.5856 43.2103 57.9772C43.2343 58.3358 43.2418 58.6686 43.2459 58.9951C41.5265 58.8932 39.8898 58.6654 38.3293 58.3233C37.9533 58.2408 37.5736 58.1644 37.2069 58.0683C37.3186 57.9393 37.4196 57.8041 37.4888 57.6522C37.7287 57.1257 37.5681 56.5506 37.2321 56.1651C36.8298 55.7035 36.2255 55.4766 35.8029 55.0185C35.218 54.3864 34.5561 53.8044 33.951 53.1604C33.6621 52.9428 33.3646 52.6777 33.0575 52.3165C32.7039 51.8994 32.5137 51.5243 32.3861 51.1689C33.8511 51.177 36.1248 51.3168 38.1785 51.959ZM120.316 36.8263H101.958V38.8681C106.548 38.8681 107.824 40.1447 107.824 43.2076C107.824 44.4817 108.308 43.137 99.8941 79.4997L89.6956 38.2901C86.7627 27.6997 82.6833 19.4077 76.4371 12.134C70.1909 4.60771 60.8841 0.396729 49.6655 0.396729C40.3587 0.396729 32.4558 3.07599 25.8266 8.43377C19.0692 13.6656 15.7549 21.1919 15.7549 31.0165C15.7549 33.744 16.074 36.3328 16.6572 38.8027C16.7525 39.2056 16.8329 39.6148 16.9437 40.0107C14.271 39.0293 14.2802 41.0767 11.4568 42.858C9.61111 44.0235 7.35754 44.5103 4.8502 45.18C2.71328 45.7502 0.383437 46.7984 0.0413091 48.3127C-0.219773 49.4634 0.794028 50.4894 2.02951 51.2144C3.24246 51.9258 4.68352 52.4369 5.7612 53.1769C6.53342 53.7086 7.1111 54.4017 7.17303 55.2005C7.23387 55.99 7.14893 56.6762 7.82674 57.3095C11.1586 60.43 15.1636 57.0088 18.3181 55.1643C19.6562 54.3823 21.445 51.9926 22.7783 53.877C23.9841 55.5814 19.6797 56.8016 18.3558 57.3526C16.702 58.0417 15.0832 58.943 13.5542 60.0011C12.5946 60.6644 11.7542 61.4322 10.7583 62.1306C9.67062 62.8947 8.64929 63.9117 8.63184 64.9258C8.60805 66.179 10.1412 66.8293 11.7452 66.8837C14.305 66.9734 16.9869 66.0082 19.3851 65.555C21.3025 65.1947 22.8915 66.2505 24.7084 65.491C26.007 64.9484 26.7354 63.6214 26.9361 62.51C27.1583 61.2878 26.9078 59.9264 27.5049 58.7421C27.879 57.9986 28.7644 57.3251 29.5874 57.3888C30.3558 57.4487 30.7818 58.1129 30.8441 58.7881C30.9063 59.4668 30.7031 60.1915 30.6617 60.8945C30.6203 61.6024 30.7902 62.3445 31.4096 62.6353C32.0032 62.9143 32.8555 62.6814 33.498 62.236C34.129 61.7978 34.5987 61.1877 35.0152 60.5886C35.2493 60.2517 35.4826 59.9157 35.7286 59.5927C36.1094 59.7076 36.508 59.7895 36.8972 59.8894C38.8792 60.3953 40.9711 60.6974 43.1692 60.7993C43.1209 61.2736 43.0592 61.7156 42.979 62.0921C43.5368 62.5375 44.036 63.0538 44.4429 63.6417C44.6044 63.3826 44.7925 63.1441 44.9925 62.9152C45.1187 62.2391 45.1835 61.5419 45.207 60.8551C49.6356 60.8123 53.5963 60.0587 57.1865 58.4472C60.8841 56.7894 62.669 54.3644 62.669 51.1759C62.669 48.1133 60.6289 46.4558 58.0797 46.4558C56.5495 46.4558 55.1467 46.9657 53.7448 48.1133C55.2747 49.134 56.0399 50.4098 56.0399 52.0693C55.9128 56.5336 50.9403 59.0854 45.4579 59.0854C45.3633 59.0854 45.2759 59.0749 45.1818 59.0744C45.0591 56.9237 44.6501 55.2254 44.6501 55.2254L44.6033 55.2436C44.3156 54.0744 43.1275 51.2482 38.4265 49.9166C36.8946 49.4828 35.0076 49.2012 32.6341 49.1992C33.0303 48.6519 33.5588 48.3491 33.5588 48.3491H33.5597C33.7556 48.1347 33.9174 47.9633 33.9585 47.9286C34.4983 47.4716 35.1454 47.2045 35.6904 46.788C36.7499 45.9771 37.4871 44.8585 37.731 43.6591C38.0523 42.0775 37.5143 40.3302 36.3054 39.0478C35.9152 38.6337 35.3697 38.2323 34.7917 38.2774C34.0355 38.3373 33.6974 39.0823 33.4792 39.7268C33.259 40.3766 32.87 41.1409 32.0605 41.1872C31.3216 41.2312 30.6863 40.6107 30.4513 39.9858C30.2166 39.3584 30.2435 38.6971 30.0253 38.067C29.7252 37.1967 28.9332 36.4026 27.9183 35.9632C27.9016 35.9554 27.8843 35.9491 27.8676 35.9412C26.9067 35.5398 25.9819 35.5418 24.9803 35.6756C23.9642 35.811 22.8214 35.7491 21.7066 35.7659C20.4762 35.7832 19.0289 35.6052 18.4725 36.6005C18.4029 36.1508 18.3601 35.6854 18.3081 35.2252C18.154 33.8618 18.0495 32.4697 18.0495 31.0165C18.0495 19.2793 24.5504 10.603 32.5826 7.03117C36.5352 5.2444 40.8686 4.35102 45.3311 4.35102C53.4901 4.86112 59.354 7.15863 64.4535 12.7731C67.8953 16.7275 69.808 19.0243 72.2307 24.6378C73.5045 27.3163 74.5244 29.614 75.1622 31.2724C75.8001 32.9301 76.6921 35.2275 77.5838 38.2901C78.4769 41.3519 79.1137 43.5205 79.3698 44.7965C79.7518 45.9447 80.2618 47.9865 81.0267 50.92C83.0662 58.958 87.2729 76.4371 93.52 103.103H97.9814L112.03 45.7586C112.923 41.8034 116.11 38.8681 120.316 38.8681V36.8263Z" fill="#8E4D39"/>
</svg>
